<svg width="69" height="32" viewBox="0 0 69 32" fill="none" xmlns="http://www.w3.org/2000/svg">
<rect x="68" y="31" width="67" height="30" rx="15" transform="rotate(-180 68 31)" stroke="black" stroke-width="2"/>
<path d="M49.4201 16.22C49.4734 16.1667 49.5001 16.12 49.5001 16.08C49.5001 16.0267 49.4467 16 49.3401 16L45.1001 16C44.8334 16 44.6067 15.9067 44.4201 15.72C44.2201 15.5334 44.1201 15.3 44.1201 15.02C44.1201 14.7267 44.2201 14.4867 44.4201 14.3C44.6067 14.1134 44.8334 14.02 45.1001 14.02L49.4001 14.02C49.5067 14.02 49.5601 13.9934 49.5601 13.94C49.5601 13.9 49.5334 13.8534 49.4801 13.8L47.3401 11.66C47.1667 11.4867 47.0801 11.2534 47.0801 10.96C47.0801 10.6667 47.1734 10.4267 47.3601 10.24C47.5334 10.0534 47.7667 9.96002 48.0601 9.96002C48.1934 9.96002 48.3267 9.98002 48.4601 10.02C48.5801 10.06 48.6867 10.1267 48.7801 10.22L52.8201 14.26C52.9134 14.3534 52.9801 14.46 53.0201 14.58C53.0601 14.7134 53.0801 14.8467 53.0801 14.98C53.0801 15.1667 53.0467 15.32 52.9801 15.44C52.9001 15.5734 52.8067 15.6934 52.7001 15.8L48.7601 19.76C48.6667 19.8534 48.5601 19.92 48.4401 19.96C48.3201 20 48.2001 20.02 48.0801 20.02C47.8001 20.02 47.5601 19.92 47.3601 19.72C47.1467 19.5334 47.0401 19.3 47.0401 19.02C47.0401 18.7934 47.1334 18.5667 47.3201 18.34L49.4201 16.22Z" fill="black"/>
<rect x="50" y="16" width="31" height="2" rx="1" transform="rotate(-180 50 16)" fill="black"/>
</svg>
