<svg width="69" height="32" viewBox="0 0 69 32" fill="none" xmlns="http://www.w3.org/2000/svg">
<rect x="1" y="1" width="67" height="30" rx="15" stroke="black" stroke-width="2"/>
<path d="M19.5799 15.78C19.5266 15.8333 19.4999 15.88 19.4999 15.92C19.4999 15.9733 19.5533 16 19.6599 16H23.8999C24.1666 16 24.3933 16.0933 24.5799 16.28C24.7799 16.4666 24.8799 16.7 24.8799 16.98C24.8799 17.2733 24.7799 17.5133 24.5799 17.7C24.3933 17.8866 24.1666 17.98 23.8999 17.98H19.5999C19.4933 17.98 19.4399 18.0066 19.4399 18.06C19.4399 18.1 19.4666 18.1466 19.5199 18.2L21.6599 20.34C21.8333 20.5133 21.9199 20.7466 21.9199 21.04C21.9199 21.3333 21.8266 21.5733 21.6399 21.76C21.4666 21.9466 21.2333 22.04 20.9399 22.04C20.8066 22.04 20.6733 22.02 20.5399 21.98C20.4199 21.94 20.3133 21.8733 20.2199 21.78L16.1799 17.74C16.0866 17.6466 16.0199 17.54 15.9799 17.42C15.9399 17.2866 15.9199 17.1533 15.9199 17.02C15.9199 16.8333 15.9533 16.68 16.0199 16.56C16.0999 16.4266 16.1933 16.3066 16.2999 16.2L20.2399 12.24C20.3333 12.1466 20.4399 12.08 20.5599 12.04C20.6799 12 20.7999 11.98 20.9199 11.98C21.1999 11.98 21.4399 12.08 21.6399 12.28C21.8533 12.4666 21.9599 12.7 21.9599 12.98C21.9599 13.2066 21.8666 13.4333 21.6799 13.66L19.5799 15.78Z" fill="black"/>
<rect x="19" y="16" width="31" height="2" rx="1" fill="black"/>
</svg>
