<svg width="50" height="50" viewBox="0 0 50 50" fill="none" xmlns="http://www.w3.org/2000/svg">
<rect width="50" height="50" fill="#E3BF3D"/>
<line x1="12.5" y1="2.18557e-08" x2="12.5" y2="50" stroke="#F9F5B2"/>
<line x1="25.5" y1="2.18557e-08" x2="25.5" y2="50" stroke="#F9F5B2"/>
<line x1="38.5" y1="2.18557e-08" x2="38.5" y2="50" stroke="#F9F5B2"/>
<line x1="50" y1="12.5" x2="-4.37114e-08" y2="12.5" stroke="#F9F5B2"/>
<line x1="50" y1="25.5" x2="-4.37114e-08" y2="25.5" stroke="#F9F5B2"/>
<line x1="50" y1="38.5" x2="-4.37114e-08" y2="38.5" stroke="#F9F5B2"/>
<rect x="13" width="12" height="12" fill="#F9F5B2"/>
<rect x="13" y="26" width="12" height="12" fill="#F9F5B2"/>
<rect x="39" y="26" width="11" height="12" fill="#F9F5B2"/>
<rect x="39" width="11" height="12" fill="#F9F5B2"/>
<rect y="13" width="12" height="12" fill="#F9F5B2"/>
<rect y="39" width="12" height="11" fill="#F9F5B2"/>
<rect x="26" y="13" width="12" height="12" fill="#F9F5B2"/>
<rect x="26" y="39" width="12" height="11" fill="#F9F5B2"/>
</svg>
